<?xml version="1.0" encoding="UTF-8"?>
<svg xmlns="http://www.w3.org/2000/svg" xmlns:xlink="http://www.w3.org/1999/xlink" width="512pt" height="512pt" viewBox="0 0 512 512" version="1.1">
<g id="surface1">
<path style=" stroke:none;fill-rule:nonzero;fill:rgb(0%,0%,0%);fill-opacity:1;" d="M 317.6875 229.75 C 319.4375 239.109375 320.394531 248.910156 320.394531 259.148438 C 320.394531 339.125 266.851562 396 186 396 C 108.652344 396 46 333.347656 46 256 C 46 178.652344 108.652344 116 186 116 C 223.804688 116 255.386719 129.910156 279.628906 152.488281 L 240.15625 191.953125 L 240.15625 191.863281 C 225.460938 177.859375 206.824219 170.6875 186 170.6875 C 139.800781 170.6875 102.265625 209.710938 102.265625 255.914062 C 102.265625 302.109375 139.800781 341.226562 186 341.226562 C 227.914062 341.226562 256.4375 317.25 262.308594 284.351562 L 186 284.351562 L 186 229.75 Z M 422.25 238.5 L 422.25 194.75 L 387.25 194.75 L 387.25 238.5 L 343.5 238.5 L 343.5 273.5 L 387.25 273.5 L 387.25 317.25 L 422.25 317.25 L 422.25 273.5 L 466 273.5 L 466 238.5 Z M 422.25 238.5 "/>
</g>
</svg>
